<svg width="90" height="61" xmlns="http://www.w3.org/2000/svg" version="1.1" enable-background="new 0 0 100 100" xml:space="preserve">
 <g>
  <title>Layer 1</title>
  <g id="svg_1">
   <g id="svg_2">
    <rect x="0" y="27.211" width="4.077" height="2.622" fill="#EFEFEF" id="svg_3"/>
    <rect x="0" y="31.372" width="4.076" height="2.625" fill="#EFEFEF" id="svg_4"/>
    <rect x="5.728" y="19.438" width="4.078" height="2.621" fill="#EFEFEF" id="svg_5"/>
    <rect x="5.728" y="23.326" width="4.078" height="2.62" fill="#EFEFEF" id="svg_6"/>
    <rect x="5.728" y="27.211" width="4.078" height="2.622" fill="#EFEFEF" id="svg_7"/>
    <rect x="5.729" y="31.372" width="4.078" height="2.625" fill="#EFEFEF" id="svg_8"/>
    <rect x="5.729" y="35.261" width="4.078" height="2.619" fill="#EFEFEF" id="svg_9"/>
    <rect x="11.456" y="23.326" width="4.079" height="2.62" fill="#EFEFEF" id="svg_10"/>
    <rect x="11.456" y="27.211" width="4.079" height="2.622" fill="#EFEFEF" id="svg_11"/>
    <rect x="11.456" y="35.261" width="4.079" height="2.619" fill="#EFEFEF" id="svg_12"/>
    <rect x="11.456" y="31.372" width="4.079" height="2.625" fill="#EFEFEF" id="svg_13"/>
    <rect x="11.456" y="39.147" width="4.079" height="2.624" fill="#EFEFEF" id="svg_14"/>
    <rect x="11.457" y="43.035" width="4.077" height="2.621" fill="#EFEFEF" id="svg_15"/>
    <rect x="17.185" y="15.549" width="4.077" height="2.623" fill="#EFEFEF" id="svg_16"/>
    <rect x="17.185" y="19.438" width="4.077" height="2.621" fill="#EFEFEF" id="svg_17"/>
    <rect x="17.185" y="23.326" width="4.077" height="2.62" fill="#EFEFEF" id="svg_18"/>
    <rect x="17.185" y="27.211" width="4.077" height="2.622" fill="#EFEFEF" id="svg_19"/>
    <rect x="17.185" y="31.372" width="4.077" height="2.625" fill="#EFEFEF" id="svg_20"/>
    <rect x="17.185" y="35.261" width="4.077" height="2.619" fill="#EFEFEF" id="svg_21"/>
    <rect x="17.185" y="39.147" width="4.077" height="2.624" fill="#EFEFEF" id="svg_22"/>
    <rect x="17.185" y="43.035" width="4.077" height="2.623" fill="#EFEFEF" id="svg_23"/>
    <rect x="17.185" y="46.925" width="4.077" height="2.62" fill="#EFEFEF" id="svg_24"/>
    <rect x="22.913" y="7.774" width="4.078" height="2.623" fill="#EFEFEF" id="svg_25"/>
    <rect x="22.913" y="11.661" width="4.078" height="2.622" fill="#EFEFEF" id="svg_26"/>
    <rect x="22.913" y="15.549" width="4.078" height="2.623" fill="#EFEFEF" id="svg_27"/>
    <rect x="22.913" y="19.438" width="4.078" height="2.621" fill="#EFEFEF" id="svg_28"/>
    <rect x="22.913" y="23.326" width="4.078" height="2.62" fill="#EFEFEF" id="svg_29"/>
    <rect x="22.913" y="27.211" width="4.078" height="2.622" fill="#EFEFEF" id="svg_30"/>
    <rect x="22.912" y="31.372" width="4.078" height="2.625" fill="#EFEFEF" id="svg_31"/>
    <rect x="22.912" y="35.261" width="4.078" height="2.619" fill="#EFEFEF" id="svg_32"/>
    <rect x="22.912" y="39.147" width="4.078" height="2.624" fill="#EFEFEF" id="svg_33"/>
    <rect x="22.912" y="43.035" width="4.078" height="2.623" fill="#EFEFEF" id="svg_34"/>
    <rect x="28.64" y="11.661" width="4.078" height="2.622" fill="#EFEFEF" id="svg_35"/>
    <rect x="28.64" y="15.549" width="4.078" height="2.623" fill="#EFEFEF" id="svg_36"/>
    <rect x="28.64" y="19.438" width="4.078" height="2.621" fill="#EFEFEF" id="svg_37"/>
    <rect x="28.64" y="23.326" width="4.078" height="2.62" fill="#EFEFEF" id="svg_38"/>
    <rect x="28.64" y="27.211" width="4.078" height="2.622" fill="#EFEFEF" id="svg_39"/>
    <rect x="28.64" y="43.035" width="4.078" height="2.621" fill="#EFEFEF" id="svg_40"/>
    <rect x="28.64" y="46.924" width="4.078" height="2.619" fill="#EFEFEF" id="svg_41"/>
    <rect x="28.641" y="31.372" width="4.078" height="2.625" fill="#EFEFEF" id="svg_42"/>
    <rect x="28.641" y="35.261" width="4.078" height="2.619" fill="#EFEFEF" id="svg_43"/>
    <rect x="28.641" y="39.147" width="4.078" height="2.624" fill="#EFEFEF" id="svg_44"/>
    <rect x="28.641" y="50.812" width="4.078" height="2.624" fill="#EFEFEF" id="svg_45"/>
    <rect x="28.641" y="54.698" width="4.078" height="2.619" fill="#EFEFEF" id="svg_46"/>
    <rect x="28.641" y="58.585" width="4.078" height="2.622" fill="#EFEFEF" id="svg_47"/>
    <rect x="34.37" y="0" width="4.077" height="2.622" fill="#EFEFEF" id="svg_48"/>
    <rect x="34.37" y="3.888" width="4.077" height="2.62" fill="#EFEFEF" id="svg_49"/>
    <rect x="34.37" y="7.774" width="4.077" height="2.623" fill="#EFEFEF" id="svg_50"/>
    <rect x="34.37" y="11.661" width="4.077" height="2.622" fill="#EFEFEF" id="svg_51"/>
    <rect x="34.37" y="15.549" width="4.077" height="2.623" fill="#EFEFEF" id="svg_52"/>
    <rect x="34.37" y="19.438" width="4.077" height="2.621" fill="#EFEFEF" id="svg_53"/>
    <rect x="34.37" y="23.326" width="4.077" height="2.62" fill="#EFEFEF" id="svg_54"/>
    <rect x="34.37" y="27.211" width="4.077" height="2.622" fill="#EFEFEF" id="svg_55"/>
    <rect x="34.37" y="31.372" width="4.077" height="2.625" fill="#EFEFEF" id="svg_56"/>
    <rect x="34.37" y="35.261" width="4.077" height="2.619" fill="#EFEFEF" id="svg_57"/>
    <rect x="34.37" y="39.147" width="4.077" height="2.624" fill="#EFEFEF" id="svg_58"/>
    <rect x="40.098" y="19.438" width="4.077" height="2.621" fill="#EFEFEF" id="svg_59"/>
    <rect x="40.098" y="23.326" width="4.077" height="2.62" fill="#EFEFEF" id="svg_60"/>
    <rect x="40.098" y="27.211" width="4.077" height="2.622" fill="#EFEFEF" id="svg_61"/>
    <rect x="40.098" y="31.372" width="4.077" height="2.625" fill="#EFEFEF" id="svg_62"/>
    <rect x="40.098" y="35.261" width="4.077" height="2.619" fill="#EFEFEF" id="svg_63"/>
    <rect x="40.098" y="39.147" width="4.077" height="2.624" fill="#EFEFEF" id="svg_64"/>
    <rect x="40.098" y="43.035" width="4.077" height="2.623" fill="#EFEFEF" id="svg_65"/>
    <rect x="45.825" y="11.661" width="4.077" height="2.622" fill="#EFEFEF" id="svg_66"/>
    <rect x="45.825" y="15.549" width="4.077" height="2.623" fill="#EFEFEF" id="svg_67"/>
    <rect x="45.825" y="19.438" width="4.077" height="2.621" fill="#EFEFEF" id="svg_68"/>
    <rect x="45.825" y="23.326" width="4.077" height="2.62" fill="#EFEFEF" id="svg_69"/>
    <rect x="45.825" y="27.211" width="4.077" height="2.622" fill="#EFEFEF" id="svg_70"/>
    <rect x="45.825" y="31.372" width="4.077" height="2.625" fill="#EFEFEF" id="svg_71"/>
    <rect x="45.825" y="35.261" width="4.077" height="2.619" fill="#EFEFEF" id="svg_72"/>
    <rect x="45.825" y="39.147" width="4.077" height="2.624" fill="#EFEFEF" id="svg_73"/>
    <rect x="45.825" y="43.035" width="4.077" height="2.62" fill="#EFEFEF" id="svg_74"/>
    <rect x="45.825" y="46.922" width="4.077" height="2.623" fill="#EFEFEF" id="svg_75"/>
    <rect x="51.554" y="3.888" width="4.078" height="2.62" fill="#EFEFEF" id="svg_76"/>
    <rect x="51.554" y="7.774" width="4.078" height="2.623" fill="#EFEFEF" id="svg_77"/>
    <rect x="51.554" y="11.661" width="4.078" height="2.622" fill="#EFEFEF" id="svg_78"/>
    <rect x="51.554" y="15.549" width="4.078" height="2.623" fill="#EFEFEF" id="svg_79"/>
    <rect x="51.554" y="19.438" width="4.078" height="2.621" fill="#EFEFEF" id="svg_80"/>
    <rect x="51.554" y="23.326" width="4.078" height="2.62" fill="#EFEFEF" id="svg_81"/>
    <rect x="51.554" y="27.211" width="4.078" height="2.622" fill="#EFEFEF" id="svg_82"/>
    <rect x="51.554" y="31.372" width="4.076" height="2.625" fill="#EFEFEF" id="svg_83"/>
    <rect x="51.554" y="35.261" width="4.076" height="2.619" fill="#EFEFEF" id="svg_84"/>
    <rect x="51.554" y="39.147" width="4.076" height="2.624" fill="#EFEFEF" id="svg_85"/>
    <rect x="51.554" y="43.035" width="4.076" height="2.623" fill="#EFEFEF" id="svg_86"/>
    <rect x="51.554" y="46.925" width="4.076" height="2.62" fill="#EFEFEF" id="svg_87"/>
    <rect x="51.554" y="50.812" width="4.076" height="2.621" fill="#EFEFEF" id="svg_88"/>
    <rect x="51.554" y="54.698" width="4.076" height="2.621" fill="#EFEFEF" id="svg_89"/>
    <rect x="57.282" y="19.438" width="4.076" height="2.621" fill="#EFEFEF" id="svg_90"/>
    <rect x="57.282" y="23.326" width="4.076" height="2.62" fill="#EFEFEF" id="svg_91"/>
    <rect x="57.282" y="27.211" width="4.076" height="2.622" fill="#EFEFEF" id="svg_92"/>
    <rect x="57.282" y="31.372" width="4.079" height="2.625" fill="#EFEFEF" id="svg_93"/>
    <rect x="57.282" y="35.261" width="4.079" height="2.619" fill="#EFEFEF" id="svg_94"/>
    <rect x="63.009" y="15.549" width="4.078" height="2.623" fill="#EFEFEF" id="svg_95"/>
    <rect x="63.009" y="19.438" width="4.078" height="2.621" fill="#EFEFEF" id="svg_96"/>
    <rect x="63.009" y="23.326" width="4.078" height="2.62" fill="#EFEFEF" id="svg_97"/>
    <rect x="63.009" y="27.211" width="4.078" height="2.622" fill="#EFEFEF" id="svg_98"/>
    <rect x="63.009" y="31.372" width="4.078" height="2.625" fill="#EFEFEF" id="svg_99"/>
    <rect x="63.009" y="35.261" width="4.078" height="2.619" fill="#EFEFEF" id="svg_100"/>
    <rect x="63.009" y="39.147" width="4.078" height="2.624" fill="#EFEFEF" id="svg_101"/>
    <rect x="63.009" y="43.035" width="4.078" height="2.623" fill="#EFEFEF" id="svg_102"/>
    <rect x="63.009" y="46.925" width="4.078" height="2.62" fill="#EFEFEF" id="svg_103"/>
    <rect x="68.738" y="7.774" width="4.077" height="2.623" fill="#EFEFEF" id="svg_104"/>
    <rect x="68.738" y="11.661" width="4.077" height="2.622" fill="#EFEFEF" id="svg_105"/>
    <rect x="68.738" y="15.549" width="4.077" height="2.623" fill="#EFEFEF" id="svg_106"/>
    <rect x="68.738" y="19.438" width="4.077" height="2.621" fill="#EFEFEF" id="svg_107"/>
    <rect x="68.738" y="23.326" width="4.077" height="2.62" fill="#EFEFEF" id="svg_108"/>
    <rect x="68.738" y="27.211" width="4.077" height="2.622" fill="#EFEFEF" id="svg_109"/>
    <rect x="68.738" y="31.372" width="4.077" height="2.625" fill="#EFEFEF" id="svg_110"/>
    <rect x="68.738" y="35.261" width="4.077" height="2.619" fill="#EFEFEF" id="svg_111"/>
    <rect x="68.738" y="39.147" width="4.077" height="2.624" fill="#EFEFEF" id="svg_112"/>
    <rect x="68.738" y="43.035" width="4.077" height="2.623" fill="#EFEFEF" id="svg_113"/>
    <rect x="74.466" y="19.438" width="4.078" height="2.621" fill="#EFEFEF" id="svg_114"/>
    <rect x="74.466" y="23.326" width="4.078" height="2.62" fill="#EFEFEF" id="svg_115"/>
    <rect x="74.466" y="27.211" width="4.078" height="2.622" fill="#EFEFEF" id="svg_116"/>
    <rect x="74.465" y="31.372" width="4.079" height="2.625" fill="#EFEFEF" id="svg_117"/>
    <rect x="74.465" y="35.261" width="4.079" height="2.619" fill="#EFEFEF" id="svg_118"/>
    <rect x="80.193" y="23.326" width="4.079" height="2.62" fill="#EFEFEF" id="svg_119"/>
    <rect x="80.193" y="27.211" width="4.079" height="2.622" fill="#EFEFEF" id="svg_120"/>
    <rect x="80.193" y="31.372" width="4.079" height="2.625" fill="#EFEFEF" id="svg_121"/>
    <rect x="80.193" y="35.261" width="4.079" height="2.619" fill="#EFEFEF" id="svg_122"/>
    <rect x="80.193" y="39.147" width="4.079" height="2.624" fill="#EFEFEF" id="svg_123"/>
    <rect x="85.923" y="27.211" width="4.077" height="2.622" fill="#EFEFEF" id="svg_124"/>
    <rect x="85.923" y="31.372" width="4.077" height="2.625" fill="#EFEFEF" id="svg_125"/>
    <rect x="85.923" y="35.261" width="4.077" height="2.619" fill="#EFEFEF" id="svg_126"/>
   </g>
  </g>
 </g>

</svg>