<?xml version="1.0" encoding="UTF-8"?>
<svg width="1303" height="212" viewBox="0 0 1303 212" xmlns="http://www.w3.org/2000/svg">
    <path fill="none" stroke="#502b3c" stroke-width="19" d="M 5.761292 157.956543 L 14.986389 150.71582 C 32.255859 137.171387 62.594238 81.692749 80.895996 60.611572 C 103.497681 34.575439 165.480957 -23.662842 178.058228 38.150513 C 186.381958 79.056519 153.170349 136.358398 159.210999 161.826416 C 163.056946 178.046997 193.825684 145.098999 195.764893 142.740845 C 211.366089 123.768555 260.883606 43.506836 293.395325 52.529175 C 304.061218 55.489502 295.84906 124.51001 294.940918 136.494629 C 292.650635 166.713623 282.3078 231.278076 334.904419 187.265625 C 359.557678 166.63623 390.247314 99.522705 422.419067 94.865601 C 443.77002 91.775024 443.800659 166.257568 477.962524 150.111084 C 514.801514 132.700073 541.494507 18.829346 600.416748 74.983765 C 626.46521 99.810059 621.275513 203.959595 682.574585 148.175537 C 725.903076 108.747314 724.002686 77.087158 786.067627 98.78186 C 847.05188 120.099609 858.161865 110.278442 915.900879 87.708252 C 931.526001 81.602173 944.840454 125.612549 975.752686 116.272461 C 1020.706299 102.6875 1037.621094 96.172607 1082.904175 105.438232 C 1151.915894 119.557129 1231.660645 111.514404 1301.614502 111.8573"/>
</svg>
