<?xml version="1.0" encoding="UTF-8"?>
<!-- Generated by Pixelmator Pro 3.6.17 -->
<svg width="953" height="337" viewBox="0 0 953 337" xmlns="http://www.w3.org/2000/svg">
    <g id="PoweredByEchoFeed01">
        <g id="Background">
            <path id="Path" fill="#f26522" stroke="none" d="M 0 1.636353 L 952 1.636353 L 952 337 L 0 337 Z"/>
        </g>
        <g id="x33D">
            <path id="path1" fill="#263238" stroke="none" opacity="0.5" d="M 952 1.636353 L 952 337 L 0 337 L 21.636364 315.363647 L 930.363647 315.363647 L 930.363647 23.272736 L 952 1.636353 Z"/>
            <path id="path2" fill="#ffffff" stroke="none" opacity="0.5" d="M 952 1.636353 L 930.363647 23.272736 L 21.636364 23.272736 L 21.636364 315.363647 L 0 337 L 0 1.636353 L 952 1.636353 Z"/>
        </g>
        <g id="Text">
            <path id="path3" fill="#ffffff" stroke="none" d="M 353.105438 117.931824 L 340.88092 117.931824 L 340.88092 145.410004 L 329.73819 145.410004 L 329.73819 77.688202 L 353.105438 77.688202 C 369.224548 77.688202 377.013611 86.883652 377.013611 97.809998 C 377.013611 107.438171 370.739105 117.823639 353.105438 117.823639 Z M 353.105438 108.844543 C 361.759979 108.844543 365.654541 104.625458 365.654541 97.809998 C 365.654541 90.994553 361.759979 86.667282 353.105438 86.667282 L 340.88092 86.667282 L 340.88092 108.736359 L 353.105438 108.736359 Z"/>
            <path id="path4" fill="#ffffff" stroke="none" d="M 410.982758 146.275436 C 395.729126 146.275436 384.045441 135.349091 384.045441 118.472717 C 384.045441 101.596359 396.161804 90.778183 411.415436 90.778183 C 426.669067 90.778183 438.785461 101.596359 438.785461 118.472717 C 438.785461 135.349091 426.344543 146.275436 410.982758 146.275436 Z M 410.982758 136.647263 C 419.204559 136.647263 427.426331 130.697281 427.426331 118.580917 C 427.426331 106.464523 419.529083 100.514542 411.199066 100.514542 C 402.86911 100.514542 395.296387 106.356369 395.296387 118.580917 C 395.296387 130.805435 402.544525 136.647263 410.874542 136.647263 Z"/>
            <path id="path5" fill="#ffffff" stroke="none" d="M 443.437286 91.751816 L 454.688171 91.751816 L 465.939087 134.916367 L 477.298157 91.751816 L 488.873627 91.751816 L 499.800018 134.699997 L 510.942719 91.751816 L 521.86908 91.751816 L 505.209106 145.410004 L 493.525452 145.410004 L 482.707275 105.81546 L 471.889069 145.410004 L 460.205475 145.410004 L 443.437286 91.751816 Z"/>
            <path id="path6" fill="#ffffff" stroke="none" d="M 553.133667 146.275436 C 537.77179 146.275436 526.304565 135.349091 526.304565 118.472717 C 526.304565 101.596359 537.230896 90.778183 553.133667 90.778183 C 569.036377 90.778183 579.205444 101.38002 579.205444 117.174545 C 579.205444 119.013641 579.205444 120.744553 578.772705 122.583633 L 537.77179 122.583633 C 538.529053 131.454544 544.911804 136.755447 553.025452 136.755447 C 559.840881 136.755447 563.627258 133.401825 565.682739 129.290894 L 577.690918 129.290894 C 574.661804 138.594543 566.223633 146.167282 553.025452 146.167282 Z M 537.988159 113.712738 L 567.738159 113.712738 C 567.52179 105.382736 561.030945 100.190002 552.700928 100.190002 C 545.236389 100.190002 539.178162 105.274551 537.988159 113.712738 Z"/>
            <path id="path7" fill="#ffffff" stroke="none" d="M 601.274536 145.410004 L 590.131836 145.410004 L 590.131836 91.751816 L 601.274536 91.751816 L 601.274536 99.540894 C 604.411804 94.131805 609.712708 90.886368 617.393616 90.886368 L 617.393616 102.353653 L 614.580933 102.353653 C 606.35907 102.353653 601.382751 105.81546 601.382751 117.174545 L 601.382751 145.410004 Z"/>
            <path id="path8" fill="#ffffff" stroke="none" d="M 650.605469 146.275436 C 635.243652 146.275436 623.776367 135.349091 623.776367 118.472717 C 623.776367 101.596359 634.702698 90.778183 650.605469 90.778183 C 666.508179 90.778183 676.677246 101.38002 676.677246 117.174545 C 676.677246 119.013641 676.677246 120.744553 676.244507 122.583633 L 635.243652 122.583633 C 636.000916 131.454544 642.383667 136.755447 650.497314 136.755447 C 657.312683 136.755447 661.099121 133.401825 663.154541 129.290894 L 675.16272 129.290894 C 672.133667 138.594543 663.695435 146.167282 650.497314 146.167282 Z M 635.460022 113.712738 L 665.210022 113.712738 C 664.993652 105.382736 658.502686 100.190002 650.172729 100.190002 C 642.708191 100.190002 636.649963 105.274551 635.460022 113.712738 Z"/>
            <path id="path9" fill="#ffffff" stroke="none" d="M 709.348206 90.886368 C 716.380005 90.886368 723.736389 94.240021 727.847229 99.21637 L 727.847229 73.360931 L 739.098206 73.360931 L 739.098206 145.410004 L 727.847229 145.410004 L 727.847229 137.296371 C 724.385437 142.164536 718.002747 146.275436 709.23999 146.275436 C 695.068176 146.275436 683.925476 134.916367 683.925476 118.364548 C 683.925476 101.812729 695.176392 90.886368 709.348206 90.886368 Z M 711.619995 100.514542 C 703.398132 100.514542 695.3927 106.789108 695.3927 118.364548 C 695.3927 129.940002 703.398132 136.647263 711.619995 136.647263 C 719.841858 136.647263 727.847229 130.156372 727.847229 118.580917 C 727.847229 107.005447 719.950012 100.514542 711.619995 100.514542 Z"/>
            <path id="path10" fill="#ffffff" stroke="none" d="M 808.767273 90.886368 C 822.939087 90.886368 833.973572 101.812729 833.973572 118.364548 C 833.973572 134.916367 822.830872 146.275436 808.767273 146.275436 C 799.896362 146.275436 793.621826 142.27272 790.051819 137.620911 L 790.051819 145.410004 L 778.909119 145.410004 L 778.909119 73.360931 L 790.051819 73.360931 L 790.051819 99.757263 C 793.513611 94.889084 800.329102 90.886368 808.767273 90.886368 Z M 806.279053 100.514542 C 797.949097 100.514542 790.051819 107.005447 790.051819 118.580917 C 790.051819 130.156372 798.057251 136.647263 806.279053 136.647263 C 814.500916 136.647263 822.614563 129.940002 822.614563 118.364548 C 822.614563 106.789108 814.609131 100.514542 806.279053 100.514542 Z"/>
            <path id="path11" fill="#ffffff" stroke="none" d="M 881.790039 91.751816 L 893.257263 91.751816 L 860.369995 170.616364 L 848.90271 170.616364 L 859.829102 144.54454 L 838.733643 91.751816 L 851.066345 91.751816 L 866.211792 132.644547 L 881.898132 91.751816 Z"/>
            <path id="path12" fill="#ffffff" stroke="none" d="M 417.581787 205.667282 L 391.29361 205.667282 L 391.29361 225.572739 L 414.660919 225.572739 L 414.660919 234.660004 L 391.29361 234.660004 L 391.29361 255.430908 L 417.581787 255.430908 L 417.581787 264.518188 L 380.150909 264.518188 L 380.150909 196.688187 L 417.581787 196.688187 L 417.581787 205.775467 Z"/>
            <path id="path13" fill="#ffffff" stroke="none" d="M 453.822723 209.886353 C 467.020905 209.886353 475.567261 216.377274 478.596375 227.736359 L 466.588196 227.736359 C 464.749084 222.54364 460.421844 219.298187 453.822723 219.298187 C 444.843628 219.298187 438.893646 225.897278 438.893646 237.580902 C 438.893646 249.264542 444.843628 255.971817 453.822723 255.971817 C 460.421844 255.971817 464.532715 253.050903 466.588196 247.53363 L 478.596375 247.53363 C 475.567261 258.027283 467.020905 265.383636 453.822723 265.383636 C 438.460907 265.383636 427.534546 254.457275 427.534546 237.580902 C 427.534546 220.704544 438.460907 209.886353 453.822723 209.886353 Z"/>
            <path id="path14" fill="#ffffff" stroke="none" d="M 489.63089 192.360901 L 500.773651 192.360901 L 500.773651 217.026367 C 504.451843 212.590912 510.509979 209.886353 517.433655 209.886353 C 529.441833 209.886353 538.745422 217.78363 538.745422 232.820923 L 538.745422 264.518188 L 527.710876 264.518188 L 527.710876 234.551819 C 527.710876 224.707275 522.301819 219.622726 514.296387 219.622726 C 506.290894 219.622726 500.773651 224.707275 500.773651 234.551819 L 500.773651 264.518188 L 489.63089 264.518188 L 489.63089 192.469086 Z"/>
            <path id="path15" fill="#ffffff" stroke="none" d="M 576.068176 265.275452 C 560.814575 265.275452 549.13092 254.349091 549.13092 237.472717 C 549.13092 220.596359 561.247314 209.778183 576.500916 209.778183 C 591.754578 209.778183 603.870911 220.596359 603.870911 237.472717 C 603.870911 254.349091 591.429993 265.275452 576.068176 265.275452 Z M 576.068176 255.647278 C 584.289978 255.647278 592.511841 249.697266 592.511841 237.580902 C 592.511841 225.464554 584.614563 219.514542 576.284546 219.514542 C 567.954529 219.514542 560.381836 225.356369 560.381836 237.580902 C 560.381836 249.80545 567.630005 255.647278 575.960022 255.647278 Z"/>
            <path id="path16" fill="#ffffff" stroke="none" d="M 614.905457 196.688187 L 654.71637 196.688187 L 654.71637 205.775467 L 625.940002 205.775467 L 625.940002 225.789093 L 648.333618 225.789093 L 648.333618 234.876358 L 625.940002 234.876358 L 625.940002 264.518188 L 614.797302 264.518188 L 614.797302 196.796371 Z"/>
            <path id="path17" fill="#ffffff" stroke="none" d="M 688.144531 265.275452 C 672.782715 265.275452 661.315491 254.349091 661.315491 237.472717 C 661.315491 220.596359 672.241821 209.778183 688.144531 209.778183 C 704.047302 209.778183 714.216309 220.37999 714.216309 236.174545 C 714.216309 238.013641 714.216309 239.744537 713.783691 241.583649 L 672.782715 241.583649 C 673.539978 250.454544 679.922729 255.755463 688.036377 255.755463 C 694.851868 255.755463 698.638184 252.401825 700.693604 248.290894 L 712.701782 248.290894 C 709.672729 257.594543 701.234558 265.167297 688.036377 265.167297 Z M 672.89093 232.712738 L 702.640869 232.712738 C 702.424561 224.382721 695.933655 219.190002 687.603638 219.190002 C 680.139099 219.190002 674.080933 224.274536 672.89093 232.712738 Z"/>
            <path id="path18" fill="#ffffff" stroke="none" d="M 748.185486 265.275452 C 732.823608 265.275452 721.356384 254.349091 721.356384 237.472717 C 721.356384 220.596359 732.282776 209.778183 748.185486 209.778183 C 764.088135 209.778183 774.257263 220.37999 774.257263 236.174545 C 774.257263 238.013641 774.257263 239.744537 773.824524 241.583649 L 732.823608 241.583649 C 733.580872 250.454544 739.963623 255.755463 748.077271 255.755463 C 754.8927 255.755463 758.679077 252.401825 760.734558 248.290894 L 772.742737 248.290894 C 769.713623 257.594543 761.275513 265.167297 748.077271 265.167297 Z M 733.040039 232.712738 L 762.790039 232.712738 C 762.573608 224.382721 756.082703 219.190002 747.752747 219.190002 C 740.288208 219.190002 734.230042 224.274536 733.040039 232.712738 Z"/>
            <path id="path19" fill="#ffffff" stroke="none" d="M 806.928162 209.886353 C 813.959961 209.886353 821.316345 213.23999 825.427307 218.21637 L 825.427307 192.360901 L 836.678162 192.360901 L 836.678162 264.410004 L 825.427307 264.410004 L 825.427307 256.296387 C 821.965515 261.164551 815.582703 265.275452 806.820007 265.275452 C 792.648132 265.275452 781.505432 253.916351 781.505432 237.364563 C 781.505432 220.812729 792.756348 209.886353 806.928162 209.886353 Z M 809.200012 219.514542 C 800.97821 219.514542 792.972778 225.789093 792.972778 237.364563 C 792.972778 248.940002 800.97821 255.647278 809.200012 255.647278 C 817.421814 255.647278 825.427307 249.156357 825.427307 237.580902 C 825.427307 226.005463 817.529968 219.514542 809.200012 219.514542 Z"/>
        </g>
        <g id="logo">
            <path id="ef-logo-r-outer-segment" fill="#ffffff" fill-rule="evenodd" stroke="none" d="M 248.781036 215.780716 C 254.671783 221.654358 256.280365 223.16449 256.540039 223.06485 C 256.720184 222.995697 256.910431 222.875488 256.962769 222.797684 C 257.015106 222.719879 257.732269 221.623871 258.556488 220.362106 C 259.380737 219.100311 260.721283 216.864685 261.535522 215.394058 C 262.349731 213.923401 263.602264 211.496918 264.318878 210.001862 C 265.035492 208.50679 266.198059 205.841553 266.902405 204.079086 C 267.60675 202.31662 268.596985 199.584747 269.102966 198.00824 C 269.608948 196.431717 270.351257 193.837097 270.752533 192.242355 C 271.153839 190.647614 271.765045 187.802582 272.110779 185.920074 C 272.456543 184.037552 272.921539 180.857162 273.144165 178.852509 C 273.486938 175.765564 273.548889 174.223099 273.548889 168.774445 C 273.548889 163.325775 273.486938 161.78331 273.144165 158.696365 C 272.921539 156.691727 272.456543 153.511337 272.110779 151.628815 C 271.765045 149.746292 271.153839 146.901276 270.752533 145.306534 C 270.351257 143.711792 269.608948 141.117157 269.102966 139.540649 C 268.596985 137.964142 267.606354 135.232269 266.90155 133.469803 C 266.196747 131.707336 265.066193 129.104813 264.38916 127.686417 C 263.712158 126.268005 262.450958 123.821548 261.586517 122.249832 C 260.722076 120.678101 259.308746 118.332031 258.44577 117.036301 C 257.210266 115.18129 256.790192 114.68045 256.469788 114.68045 C 256.175659 114.68045 254.000626 116.739731 248.622131 122.110443 C 241.742126 128.98053 241.186356 129.581421 241.247574 130.084106 C 241.283981 130.383118 241.739395 131.36171 242.259628 132.258743 C 242.779892 133.155762 243.598999 134.664429 244.079895 135.611298 C 244.560806 136.558167 245.450287 138.515335 246.056503 139.960556 C 246.662735 141.405777 247.52887 143.700241 247.981277 145.059372 C 248.433655 146.418472 249.137299 148.824158 249.544937 150.405334 C 249.952545 151.986496 250.485931 154.456879 250.73024 155.89505 C 250.974533 157.333221 251.295364 159.7724 251.443176 161.31543 C 251.600922 162.961868 251.71196 166.043503 251.71196 168.774445 C 251.71196 171.505386 251.600922 174.587021 251.443176 176.233459 C 251.295364 177.776474 250.974533 180.215668 250.73024 181.653824 C 250.485931 183.09201 249.949799 185.573471 249.538818 187.168213 C 249.127823 188.762955 248.390015 191.259384 247.8992 192.715836 C 247.408417 194.172318 246.508514 196.537216 245.899445 197.971207 C 245.290375 199.405182 244.343811 201.434708 243.79599 202.481247 C 243.248154 203.527786 242.387665 205.100449 241.883789 205.976074 C 241.110153 207.320435 240.99733 207.630539 241.15863 207.969482 C 241.263657 208.190262 244.693756 211.705292 248.781036 215.780716 Z"/>
            <path id="ef-logo-r-inner-segment" fill="#ffffff" fill-rule="evenodd" stroke="none" d="M 222.534637 189.531479 C 226.775665 193.768112 228.908035 195.776123 229.166107 195.776123 C 229.471741 195.776123 229.727554 195.393311 230.46785 193.828018 C 230.974609 192.756561 231.710114 191.064423 232.102295 190.067719 C 232.494492 189.071014 233.068985 187.480804 233.378937 186.533936 C 233.688873 185.587082 234.144089 183.996872 234.390518 183.000168 C 234.636963 182.003464 235.002899 180.324173 235.203705 179.268402 C 235.404556 178.212631 235.674088 176.418579 235.802673 175.28157 C 235.931259 174.144592 236.036484 171.21637 236.036484 168.774445 C 236.036484 166.33252 235.931259 163.404297 235.802673 162.267319 C 235.674088 161.13031 235.404709 159.336258 235.204071 158.280487 C 235.003418 157.224716 234.603439 155.423096 234.315201 154.276886 C 234.026978 153.130692 233.467056 151.255051 233.070938 150.108841 C 232.674805 148.962646 231.934753 147.046234 231.426376 145.850189 C 230.917999 144.654144 230.276596 143.267807 230.001022 142.769455 C 229.654724 142.143204 229.395004 141.872635 229.160065 141.893387 C 228.973145 141.909882 225.935791 144.804855 222.410446 148.326675 C 218.885101 151.848465 215.953659 154.913147 215.896133 155.137085 C 215.837952 155.363541 216.073792 156.530609 216.427505 157.766785 C 216.777298 158.989197 217.214188 160.926239 217.398392 162.071335 C 217.661331 163.705917 217.733322 165.152557 217.733322 168.802917 C 217.733322 172.752396 217.673706 173.802933 217.337433 175.779861 C 217.11969 177.059921 216.645981 179.080338 216.28476 180.269684 C 215.643097 182.382309 215.635529 182.441971 215.955765 182.859467 C 216.136063 183.094482 219.096558 186.096893 222.534637 189.531479 Z"/>
            <path id="ef-logo-l-inner-segment" fill="#ffffff" fill-rule="evenodd" stroke="none" opacity="0.649211" d="M 170.525665 264.446014 C 171.57222 264.536865 175.323441 264.582825 178.861755 264.548126 C 183.947037 264.498322 185.940582 264.406647 188.375778 264.110657 C 190.070175 263.904755 192.842834 263.488922 194.537231 263.186584 C 196.231628 262.884277 199.085846 262.274567 200.879913 261.831665 C 202.673996 261.388794 205.431732 260.611694 207.00824 260.104736 C 208.584747 259.597778 211.31662 258.60675 213.079086 257.902405 C 214.841553 257.198059 217.50679 256.035461 219.001862 255.318863 C 220.496918 254.602264 222.943375 253.339111 224.438431 252.511871 C 225.933502 251.684631 228.461502 250.151031 230.056244 249.103897 C 231.65097 248.056732 234.015869 246.402237 235.3116 245.427216 C 236.607315 244.452179 238.319839 243.109207 239.117203 242.442795 C 239.914581 241.776398 241.60672 240.288315 242.877502 239.135956 C 244.443695 237.715759 245.188049 236.917755 245.188049 236.65889 C 245.188049 236.397568 242.872375 233.961823 237.854309 228.944916 C 233.267532 224.359177 230.389648 221.612823 230.171051 221.612823 C 229.978836 221.612823 229.194565 222.180756 228.428253 222.874908 C 227.661942 223.569031 226.083771 224.934647 224.921219 225.909561 C 223.758636 226.884491 221.90918 228.32309 220.811279 229.10643 C 219.713394 229.889771 217.75621 231.178726 216.462021 231.970795 C 215.167816 232.762817 213.171112 233.908524 212.024902 234.516754 C 210.878708 235.124985 208.688583 236.158234 207.158005 236.812851 C 205.627441 237.467468 203.180969 238.405487 201.72142 238.897308 C 200.261887 239.389145 197.762955 240.127838 196.168213 240.538818 C 194.573471 240.949799 192.09201 241.485931 190.653824 241.73024 C 189.215668 241.974533 186.776489 242.295349 185.233459 242.443176 C 183.587021 242.600922 180.505386 242.711945 177.774445 242.711945 C 175.043503 242.711945 171.961868 242.600922 170.31543 242.443176 C 168.7724 242.295349 166.333221 241.974533 164.895065 241.73024 C 163.456879 241.485931 160.975418 240.949799 159.380676 240.538818 C 157.785934 240.127838 155.287003 239.389145 153.827469 238.897308 C 152.36792 238.405487 149.921448 237.467468 148.390884 236.812851 C 146.860306 236.158234 144.670181 235.124985 143.523987 234.516754 C 142.377777 233.908524 140.381073 232.762817 139.086868 231.970795 C 137.792679 231.178726 135.825562 229.882904 134.71553 229.091187 C 133.605499 228.299454 131.606308 226.74176 130.272888 225.629654 C 128.939468 224.517517 126.744377 222.503479 125.394897 221.153992 C 124.045395 219.804504 122.031364 217.609406 120.919228 216.276001 C 119.807114 214.942581 118.249428 212.94339 117.457703 211.833359 C 116.66597 210.723328 115.370163 208.75621 114.578102 207.462021 C 113.786064 206.167816 112.640366 204.171112 112.032135 203.024902 C 111.423904 201.878708 110.390656 199.688583 109.736031 198.15799 C 109.081413 196.627426 108.143394 194.180969 107.651566 192.72142 C 107.159744 191.261887 106.421059 188.762955 106.010063 187.168213 C 105.599091 185.573471 105.06295 183.09201 104.818642 181.653824 C 104.574356 180.215668 104.253525 177.776474 104.105713 176.233459 C 103.94796 174.587021 103.836937 171.505386 103.836937 168.774445 C 103.836937 166.043503 103.94796 162.961868 104.105713 161.31543 C 104.253525 159.7724 104.574356 157.333221 104.818642 155.89505 C 105.06295 154.456879 105.599091 151.975418 106.010063 150.380676 C 106.421059 148.785934 107.159744 146.287003 107.651566 144.827469 C 108.143394 143.36792 109.081413 140.921448 109.736031 139.390884 C 110.390656 137.860306 111.423904 135.670181 112.032135 134.523972 C 112.640366 133.377777 113.786064 131.381058 114.578102 130.086868 C 115.370163 128.792679 116.66597 126.825562 117.457703 125.71553 C 118.249428 124.605484 119.807114 122.606308 120.919228 121.272888 C 122.031364 119.939468 124.045395 117.74437 125.394897 116.394897 C 126.744377 115.045395 128.939468 113.031357 130.272888 111.91922 C 131.606308 110.807114 133.605499 109.24942 134.71553 108.457703 C 135.825562 107.66597 137.792679 106.370163 139.086868 105.578094 C 140.381073 104.786057 142.377777 103.640366 143.523987 103.032135 C 144.670181 102.423904 146.860306 101.390656 148.390884 100.736038 C 149.921448 100.081406 152.36792 99.143387 153.827469 98.651566 C 155.287003 98.159744 157.785934 97.421051 159.380676 97.010056 C 160.975418 96.599091 163.456879 96.062958 164.895065 95.818634 C 166.333221 95.574356 168.7724 95.253525 170.31543 95.105713 C 171.961868 94.947968 175.043503 94.836929 177.774445 94.836929 C 180.505386 94.836929 183.587021 94.947968 185.233459 95.105713 C 186.776489 95.253525 189.215668 95.574356 190.653824 95.818634 C 192.09201 96.062958 194.573471 96.599091 196.168213 97.010056 C 197.762955 97.421051 200.261887 98.159744 201.72142 98.651566 C 203.180969 99.143387 205.627441 100.081406 207.158005 100.736038 C 208.688583 101.390656 210.878708 102.423904 212.024902 103.032135 C 213.171112 103.640366 215.167816 104.786057 216.462021 105.578094 C 217.75621 106.370163 219.713394 107.658936 220.811279 108.442062 C 221.90918 109.225204 223.675537 110.588669 224.736496 111.472 C 225.79747 112.355331 227.373718 113.724014 228.239288 114.513519 C 229.104828 115.303024 229.990067 115.971802 230.206467 115.999664 C 230.512054 116.039047 232.236969 114.41188 237.9328 108.711227 C 243.061646 103.578018 245.265717 101.254425 245.265717 100.980591 C 245.265717 100.725616 244.793976 100.154663 243.91304 99.343399 C 243.169067 98.658264 241.622559 97.284485 240.476349 96.290512 C 239.330154 95.296555 237.4953 93.782822 236.398911 92.926697 C 235.302536 92.070572 232.774521 90.281647 230.781113 88.951279 C 228.787704 87.620941 225.933502 85.85759 224.438431 85.03273 C 222.943375 84.20784 220.496918 82.946625 219.001862 82.230026 C 217.50679 81.513397 214.841553 80.35083 213.079086 79.646484 C 211.31662 78.942139 208.584747 77.951904 207.00824 77.445923 C 205.431732 76.939941 202.837097 76.197632 201.242355 75.796356 C 199.647614 75.39505 196.802597 74.783844 194.920074 74.43808 C 193.037552 74.092346 189.857162 73.62735 187.852524 73.404724 C 184.765564 73.061951 183.223099 73 177.774445 73 C 172.32579 73 170.783325 73.061951 167.696365 73.404724 C 165.691727 73.62735 162.511337 74.092346 160.628815 74.43808 C 158.746292 74.783844 155.901276 75.39505 154.306534 75.796356 C 152.711792 76.197632 150.117157 76.939941 148.540649 77.445923 C 146.964142 77.951904 144.232269 78.942139 142.469803 79.646484 C 140.707336 80.35083 138.042099 81.513397 136.547028 82.230026 C 135.051971 82.946625 132.605515 84.20784 131.110458 85.03273 C 129.615387 85.85759 126.761185 87.621048 124.767776 88.951523 C 122.774361 90.281982 120.173561 92.127609 118.988197 93.052872 C 117.802841 93.978149 115.804893 95.630737 114.548325 96.725311 C 113.291733 97.819885 111.240295 99.73877 109.989525 100.989517 C 108.738777 102.240295 106.819885 104.291733 105.725319 105.548325 C 104.630745 106.804886 102.978157 108.802841 102.052879 109.98819 C 101.127602 111.173553 99.281982 113.774353 97.95153 115.767776 C 96.621056 117.761185 94.857597 120.615387 94.03273 122.110443 C 93.20784 123.605515 91.946625 126.051971 91.230019 127.547028 C 90.513405 129.042099 89.350807 131.707336 88.646484 133.469803 C 87.942146 135.232269 86.951897 137.964142 86.445923 139.540649 C 85.939949 141.117157 85.197639 143.711792 84.796356 145.306534 C 84.395065 146.901276 83.783844 149.746292 83.43811 151.628815 C 83.092361 153.511337 82.627357 156.691727 82.404747 158.696365 C 82.061951 161.78331 82 163.325775 82 168.774445 C 82 174.223099 82.061951 175.765564 82.404747 178.852509 C 82.627357 180.857162 83.092361 184.037552 83.43811 185.920074 C 83.783844 187.802582 84.395065 190.647614 84.796356 192.242355 C 85.197639 193.837097 85.939949 196.431717 86.445923 198.00824 C 86.951897 199.584747 87.942146 202.31662 88.646484 204.079086 C 89.350807 205.841553 90.513405 208.50679 91.230019 210.001862 C 91.946625 211.496918 93.20784 213.943375 94.03273 215.438431 C 94.857597 216.933502 96.621056 219.787689 97.95153 221.781113 C 99.281982 223.774536 101.127602 226.375336 102.052879 227.560684 C 102.978157 228.746048 104.630745 230.743988 105.725319 232.000565 C 106.819885 233.257141 108.738777 235.308594 109.989525 236.559357 C 111.240295 237.81012 113.291733 239.729004 114.548325 240.823578 C 115.804893 241.918152 117.802841 243.57074 118.988197 244.496002 C 120.173561 245.42128 122.774361 247.266907 124.767776 248.597351 C 126.761185 249.927826 129.615387 251.691284 131.110458 252.516159 C 132.605515 253.341049 135.051971 254.602264 136.547028 255.318863 C 138.042099 256.035461 140.707336 257.198059 142.469803 257.902405 C 144.232269 258.60675 146.964142 259.596985 148.540649 260.102966 C 150.117157 260.608948 152.702881 261.34845 154.286667 261.746277 C 155.870483 262.144135 158.480042 262.716064 160.085693 263.017212 C 161.69136 263.318359 164.269058 263.725891 165.813965 263.922791 C 167.358871 264.119781 169.479126 264.355194 170.525665 264.446014 Z"/>
            <path id="ef-logo-l-outer-segment" fill="#ffffff" fill-rule="evenodd" stroke="none" opacity="0.649211" d="M 172.247253 226.940033 C 173.044617 227.028961 175.939606 227.070862 178.680542 227.033173 C 182.494781 226.980728 184.195572 226.880447 185.929321 226.605835 C 187.175201 226.408508 189.01004 226.071381 190.00676 225.856659 C 191.003464 225.641953 192.5121 225.273544 193.359314 225.037964 C 194.206528 224.802399 195.728134 224.321213 196.740692 223.968689 C 197.753265 223.61615 199.513138 222.932983 200.651535 222.450562 C 201.789932 221.968109 203.774887 221.02063 205.062592 220.345093 C 206.35025 219.669525 208.545502 218.356445 209.940887 217.427124 C 211.336258 216.497803 213.334213 215.044952 214.380753 214.198547 C 215.427307 213.352142 216.810715 212.177032 217.455002 211.587234 C 218.214798 210.891693 218.62648 210.375031 218.62648 210.116974 C 218.62648 209.836151 216.842285 207.933029 212.562088 203.648285 C 208.019714 199.101074 206.403946 197.590179 206.1241 197.628189 C 205.918625 197.656097 205.170975 198.199234 204.462708 198.835159 C 203.754425 199.471085 202.542923 200.464676 201.770447 201.043152 C 200.997986 201.621613 199.33992 202.706818 198.085876 203.454742 C 196.831818 204.202652 194.949509 205.17865 193.902969 205.623611 C 192.85643 206.068588 191.062347 206.728439 189.916138 207.089981 C 188.769943 207.451508 187.057404 207.904129 186.110535 208.095795 C 185.163666 208.28746 183.697922 208.529709 182.853348 208.634094 C 182.008774 208.73851 179.723267 208.823929 177.774445 208.823929 C 175.825623 208.823929 173.540115 208.73851 172.695541 208.634094 C 171.850967 208.529709 170.385223 208.28746 169.438354 208.095795 C 168.491486 207.904129 166.778946 207.451508 165.632751 207.089981 C 164.486542 206.728439 162.692459 206.068588 161.64592 205.623611 C 160.599365 205.17865 158.714569 204.201172 157.457474 203.451447 C 156.200394 202.701706 154.447098 201.549667 153.561264 200.891327 C 152.675446 200.233002 150.804031 198.547729 149.402588 197.146286 C 148.00116 195.744858 146.315887 193.873444 145.657562 192.987625 C 144.999222 192.101791 143.847183 190.34848 143.097427 189.091415 C 142.347717 187.834305 141.370224 185.949509 140.925278 184.902969 C 140.480301 183.856415 139.82045 182.062347 139.458908 180.916138 C 139.097382 179.769943 138.644745 178.057404 138.453094 177.110535 C 138.261429 176.163666 138.01918 174.697922 137.91478 173.853348 C 137.810379 173.008759 137.72496 170.723251 137.72496 168.774445 C 137.72496 166.825623 137.810379 164.540115 137.91478 163.695541 C 138.01918 162.850967 138.261429 161.385223 138.453094 160.438354 C 138.644745 159.491486 139.097382 157.778946 139.458908 156.632736 C 139.82045 155.486542 140.480301 153.692459 140.925278 152.64592 C 141.370224 151.599365 142.347717 149.714569 143.097427 148.457474 C 143.847183 147.200394 144.999222 145.447098 145.657562 144.561264 C 146.315887 143.675446 148.00116 141.804031 149.402588 140.402588 C 150.804031 139.001144 152.675446 137.315887 153.561264 136.657547 C 154.447098 135.999222 156.200394 134.847168 157.457474 134.097427 C 158.714569 133.347717 160.599365 132.370224 161.64592 131.925278 C 162.692459 131.480301 164.486542 130.820435 165.632751 130.458908 C 166.778946 130.097382 168.491486 129.644745 169.438354 129.453094 C 170.385223 129.261429 171.850967 129.01918 172.695541 128.91478 C 173.540115 128.810364 175.825623 128.72496 177.774445 128.72496 C 179.723267 128.72496 182.008774 128.810364 182.853348 128.91478 C 183.697922 129.01918 185.163666 129.261429 186.110535 129.453094 C 187.057404 129.644745 188.769943 130.097382 189.916138 130.458908 C 191.062347 130.820435 192.85643 131.480301 193.902969 131.925278 C 194.949509 132.370224 196.831818 133.346222 198.085876 134.094131 C 199.33992 134.842056 201.010361 135.936554 201.797974 136.526352 C 202.585602 137.11615 203.836029 138.147614 204.576752 138.818466 C 205.317474 139.489334 206.075546 140.038223 206.261368 140.038223 C 206.46347 140.038223 209.036621 137.601654 212.664642 133.974854 C 216.991852 129.649078 218.730026 127.796127 218.730026 127.50885 C 218.730026 127.226624 218.174515 126.611298 216.872528 125.451355 C 215.850906 124.541183 214.117996 123.121201 213.021622 122.295822 C 211.925232 121.470474 210.198181 120.257507 209.183731 119.600342 C 208.169266 118.943176 206.300217 117.858734 205.030289 117.190491 C 203.760376 116.522247 201.779114 115.576202 200.627502 115.08815 C 199.475906 114.600128 197.593719 113.876114 196.444839 113.479279 C 195.29599 113.082413 193.418198 112.521912 192.271988 112.233688 C 191.125793 111.945435 189.324173 111.545456 188.268402 111.344818 C 187.212631 111.14418 185.418579 110.874802 184.28157 110.746216 C 183.144592 110.617615 180.21637 110.512405 177.774445 110.512405 C 175.33252 110.512405 172.404297 110.617615 171.267319 110.746216 C 170.13031 110.874802 168.336258 111.14418 167.280487 111.344818 C 166.224716 111.545456 164.423096 111.945435 163.276901 112.233688 C 162.130692 112.521912 160.252899 113.082413 159.10405 113.479279 C 157.95517 113.876114 156.072983 114.600128 154.921387 115.08815 C 153.769775 115.576202 151.774002 116.528244 150.486298 117.203796 C 149.198639 117.879364 147.003387 119.192444 145.608002 120.12175 C 144.212616 121.051071 142.173904 122.527481 141.077515 123.402695 C 139.98114 124.277893 137.938828 126.139267 136.539047 127.539047 C 135.139267 128.938828 133.277893 130.981125 132.40271 132.077515 C 131.527481 133.173904 130.051071 135.212616 129.12175 136.608002 C 128.192444 138.003387 126.879364 140.198639 126.203789 141.486298 C 125.528244 142.774002 124.576202 144.769775 124.088158 145.921371 C 123.600136 147.072983 122.876122 148.95517 122.479286 150.10405 C 122.08242 151.252899 121.521912 153.130692 121.233688 154.276886 C 120.945442 155.423096 120.545464 157.224716 120.344826 158.280487 C 120.14418 159.336258 119.874809 161.13031 119.746216 162.267319 C 119.617622 163.404297 119.512413 166.33252 119.512413 168.774445 C 119.512413 171.21637 119.617622 174.144592 119.746216 175.28157 C 119.874809 176.418579 120.14418 178.212631 120.344826 179.268402 C 120.545464 180.324173 120.945442 182.125793 121.233688 183.271988 C 121.521912 184.418198 122.08242 186.295975 122.479286 187.444839 C 122.876122 188.593719 123.600136 190.475906 124.088158 191.627502 C 124.576202 192.779114 125.528244 194.774887 126.203789 196.062576 C 126.879364 197.35025 128.192444 199.545502 129.12175 200.940887 C 130.051071 202.336258 131.527481 204.374985 132.40271 205.471375 C 133.277893 206.567749 135.139267 208.610062 136.539047 210.009827 C 137.938828 211.409622 139.98114 213.270996 141.077515 214.146179 C 142.173904 215.021393 144.212616 216.497803 145.608002 217.427124 C 147.003387 218.356445 149.198639 219.669525 150.486298 220.345093 C 151.774002 221.02063 153.758957 221.968109 154.897354 222.450562 C 156.035751 222.932983 157.795624 223.61615 158.808197 223.968689 C 159.820755 224.321213 161.342361 224.802399 162.189575 225.037964 C 163.036789 225.273544 164.528641 225.637177 165.504791 225.846039 C 166.480972 226.054932 168.071182 226.350128 169.038574 226.502075 C 170.005997 226.654022 171.44989 226.851105 172.247253 226.940033 Z"/>
            <path id="ef-logo-circle" fill="#ffffff" fill-rule="evenodd" stroke="none" d="M 197.34613 168.865051 C 197.34613 158.105942 188.624161 149.383972 177.865051 149.383972 C 167.105957 149.383972 158.383972 158.105942 158.383972 168.865051 C 158.383972 179.624161 167.105957 188.34613 177.865051 188.34613 C 188.624161 188.34613 197.34613 179.624161 197.34613 168.865051 Z"/>
        </g>
    </g>
</svg>
