<?xml version="1.0" encoding="UTF-8"?><svg xmlns="http://www.w3.org/2000/svg" width="88" height="31" viewBox="0 0 88 31"><g id="Background"><rect width="88" height="31" fill="#f26522"/></g><g id="_x33_D"><polygon points="88 0 88 31 0 31 2 29 86 29 86 2 88 0" fill="#263238" opacity=".5"/><polygon points="88 0 86 2 2 2 2 29 0 31 0 0 88 0" fill="#fff" opacity=".5"/></g><g id="Text"><path d="M32.64,10.75h-1.13v2.54h-1.03v-6.26h2.16c1.49,0,2.21.85,2.21,1.86,0,.89-.58,1.85-2.21,1.85ZM32.64,9.91c.8,0,1.16-.39,1.16-1.02s-.36-1.03-1.16-1.03h-1.13v2.04h1.13Z" fill="#fff"/><path d="M37.99,13.37c-1.41,0-2.49-1.01-2.49-2.57s1.12-2.56,2.53-2.56,2.53,1,2.53,2.56-1.15,2.57-2.57,2.57ZM37.99,12.48c.76,0,1.52-.55,1.52-1.67s-.73-1.67-1.5-1.67-1.47.54-1.47,1.67.67,1.67,1.44,1.67Z" fill="#fff"/><path d="M40.99,8.33h1.04l1.04,3.99,1.05-3.99h1.07l1.01,3.97,1.03-3.97h1.01l-1.54,4.96h-1.08l-1-3.66-1,3.66h-1.08l-1.55-4.96Z" fill="#fff"/><path d="M51.13,13.37c-1.42,0-2.48-1.01-2.48-2.57s1.01-2.56,2.48-2.56,2.41.98,2.41,2.44c0,.17,0,.33-.04.5h-3.79c.07.82.66,1.31,1.41,1.31.63,0,.98-.31,1.17-.69h1.11c-.28.86-1.06,1.56-2.28,1.56ZM49.73,10.36h2.75c-.02-.77-.62-1.25-1.39-1.25-.69,0-1.25.47-1.36,1.25Z" fill="#fff"/><path d="M55.58,13.29h-1.03v-4.96h1.03v.72c.29-.5.78-.8,1.49-.8v1.06h-.26c-.76,0-1.22.32-1.22,1.37v2.61Z" fill="#fff"/><path d="M60.14,13.37c-1.42,0-2.48-1.01-2.48-2.57s1.01-2.56,2.48-2.56,2.41.98,2.41,2.44c0,.17,0,.33-.04.5h-3.79c.07.82.66,1.31,1.41,1.31.63,0,.98-.31,1.17-.69h1.11c-.28.86-1.06,1.56-2.28,1.56ZM58.74,10.36h2.75c-.02-.77-.62-1.25-1.39-1.25-.69,0-1.25.47-1.36,1.25Z" fill="#fff"/><path d="M65.57,8.25c.65,0,1.33.31,1.71.77v-2.39h1.04v6.66h-1.04v-.75c-.32.45-.91.83-1.72.83-1.31,0-2.34-1.05-2.34-2.58s1.04-2.54,2.35-2.54ZM65.78,9.14c-.76,0-1.5.58-1.5,1.65s.74,1.69,1.5,1.69,1.5-.6,1.5-1.67-.73-1.67-1.5-1.67Z" fill="#fff"/><path d="M74.76,8.25c1.31,0,2.33,1.01,2.33,2.54s-1.03,2.58-2.33,2.58c-.82,0-1.4-.37-1.73-.8v.72h-1.03v-6.66h1.03v2.44c.32-.45.95-.82,1.73-.82ZM74.53,9.14c-.77,0-1.5.6-1.5,1.67s.74,1.67,1.5,1.67,1.51-.62,1.51-1.69-.74-1.65-1.51-1.65Z" fill="#fff"/><path d="M81.51,8.33h1.06l-3.04,7.29h-1.06l1.01-2.41-1.95-4.88h1.14l1.4,3.78,1.45-3.78Z" fill="#fff"/><path d="M38.6,18.86h-2.43v1.84h2.16v.84h-2.16v1.92h2.43v.84h-3.46v-6.27h3.46v.84Z" fill="#fff"/><path d="M41.95,19.25c1.22,0,2.01.6,2.29,1.65h-1.11c-.17-.48-.57-.78-1.18-.78-.83,0-1.38.61-1.38,1.69s.55,1.7,1.38,1.7c.61,0,.99-.27,1.18-.78h1.11c-.28.97-1.07,1.65-2.29,1.65-1.42,0-2.43-1.01-2.43-2.57s1.01-2.56,2.43-2.56Z" fill="#fff"/><path d="M45.26,17.63h1.03v2.28c.34-.41.9-.66,1.54-.66,1.11,0,1.97.73,1.97,2.12v2.93h-1.02v-2.77c0-.91-.5-1.38-1.24-1.38s-1.25.47-1.25,1.38v2.77h-1.03v-6.66Z" fill="#fff"/><path d="M53.25,24.37c-1.41,0-2.49-1.01-2.49-2.57s1.12-2.56,2.53-2.56,2.53,1,2.53,2.56-1.15,2.57-2.57,2.57ZM53.25,23.48c.76,0,1.52-.55,1.52-1.67s-.73-1.67-1.5-1.67-1.47.54-1.47,1.67.67,1.67,1.44,1.67Z" fill="#fff"/><path d="M56.84,18.03h3.68v.84h-2.66v1.85h2.07v.84h-2.07v2.74h-1.03v-6.26Z" fill="#fff"/><path d="M63.61,24.37c-1.42,0-2.48-1.01-2.48-2.57s1.01-2.56,2.48-2.56,2.41.98,2.41,2.44c0,.17,0,.33-.04.5h-3.79c.07.82.66,1.31,1.41,1.31.63,0,.98-.31,1.17-.69h1.11c-.28.86-1.06,1.56-2.28,1.56ZM62.2,21.36h2.75c-.02-.77-.62-1.25-1.39-1.25-.69,0-1.25.47-1.36,1.25Z" fill="#fff"/><path d="M69.16,24.37c-1.42,0-2.48-1.01-2.48-2.57s1.01-2.56,2.48-2.56,2.41.98,2.41,2.44c0,.17,0,.33-.04.5h-3.79c.07.82.66,1.31,1.41,1.31.63,0,.98-.31,1.17-.69h1.11c-.28.86-1.06,1.56-2.28,1.56ZM67.76,21.36h2.75c-.02-.77-.62-1.25-1.39-1.25-.69,0-1.25.47-1.36,1.25Z" fill="#fff"/><path d="M74.59,19.25c.65,0,1.33.31,1.71.77v-2.39h1.04v6.66h-1.04v-.75c-.32.45-.91.83-1.72.83-1.31,0-2.34-1.05-2.34-2.58s1.04-2.54,2.35-2.54ZM74.8,20.14c-.76,0-1.5.58-1.5,1.65s.74,1.69,1.5,1.69,1.5-.6,1.5-1.67-.73-1.67-1.5-1.67Z" fill="#fff"/></g><g id="Image"><path d="M6.29,17.64c-.52,0-.94-.42-.94-.94v-2.41c0-.52.42-.94.94-.94s.94.42.94.94v2.41c0,.52-.42.94-.94.94Z" fill="#fff"/><path d="M9.44,18.64c-.52,0-.94-.42-.94-.94v-4.4c0-.52.42-.94.94-.94s.94.42.94.94v4.4c0,.52-.42.94-.94.94Z" fill="#fff"/><path d="M12.59,21.71c-.52,0-.94-.42-.94-.94v-10.55c0-.52.42-.94.94-.94s.94.42.94.94v10.55c0,.52-.42.94-.94.94Z" fill="#fff"/><path d="M15.74,23.76c-.52,0-.94-.42-.94-.94v-14.64c0-.52.42-.94.94-.94s.94.42.94.94v14.64c0,.52-.42.94-.94.94Z" fill="#fff"/><path d="M18.89,19.58c-.52,0-.94-.42-.94-.94v-6.28c0-.52.42-.94.94-.94s.94.42.94.94v6.28c0,.52-.42.94-.94.94Z" fill="#fff"/><path d="M22.04,21.71c-.52,0-.94-.42-.94-.94v-10.55c0-.52.42-.94.94-.94s.94.42.94.94v10.55c0,.52-.42.94-.94.94Z" fill="#fff"/><path d="M25.19,18.64c-.52,0-.94-.42-.94-.94v-4.4c0-.52.42-.94.94-.94s.94.42.94.94v4.4c0,.52-.42.94-.94.94Z" fill="#fff"/></g></svg>