<?xml version="1.0" encoding="utf-8"?>
<svg xmlns="http://www.w3.org/2000/svg" viewBox="0 0 88 31" width="88px" height="31px"><g id="object-2" transform="matrix(1, 0, 0, 1, 8.881784197001252e-16, 0)"><rect width="88" height="31" style="stroke: rgb(255, 105, 173); stroke-width: 3px; paint-order: fill; fill: rgb(52, 52, 52);" id="object-0"/><g transform="matrix(0.075472, 0, 0, -0.075472, -10.799225, 61.995667)" style="" id="object-1"><title>Default</title><g id="g24" transform="matrix(1, 0, 0, 1, 318.75, 511.366486)"><path d="m 0,0 c -20.346,0 -40.691,7.762 -56.215,23.285 l -53,53 c -31.047,31.047 -31.047,81.383 0,112.43 29.997,29.997 78,31.012 109.215,3.044 31.216,27.967 79.219,26.952 109.215,-3.044 31.047,-31.047 31.047,-81.383 0,-112.43 l -53,-53 C 40.692,7.762 20.346,0 0,0" style="fill:#ff69ad;fill-opacity:1;fill-rule:nonzero;stroke:none" id="path26"/></g><g id="g28" transform="matrix(1, 0, 0, 1, 303.125, 656.25)"><path d="m 0,0 c 0,-3.452 -2.798,-6.25 -6.25,-6.25 -3.452,0 -6.25,2.798 -6.25,6.25 0,3.452 2.798,6.25 6.25,6.25 C -2.798,6.25 0,3.452 0,0" style="fill:#461036;fill-opacity:1;fill-rule:nonzero;stroke:none" id="path30"/></g><g id="g32" transform="matrix(1, 0, 0, 1, 303.125, 656.25)"><path d="m 0,0 c 0,-3.452 -2.798,-6.25 -6.25,-6.25 -3.452,0 -6.25,2.798 -6.25,6.25 0,3.452 2.798,6.25 6.25,6.25 C -2.798,6.25 0,3.452 0,0 Z" style="fill:none;stroke:#461036;stroke-width:6;stroke-linecap:butt;stroke-linejoin:miter;stroke-miterlimit:10;stroke-dasharray:none;stroke-opacity:1" id="path34"/></g><g id="g36" transform="matrix(1, 0, 0, 1, 346.875, 656.25)"><path d="m 0,0 c 0,-3.452 -2.798,-6.25 -6.25,-6.25 -3.452,0 -6.25,2.798 -6.25,6.25 0,3.452 2.798,6.25 6.25,6.25 C -2.798,6.25 0,3.452 0,0" style="fill:#461036;fill-opacity:1;fill-rule:nonzero;stroke:none" id="path38"/></g><g id="g40" transform="matrix(1, 0, 0, 1, 346.875, 656.25)"><path d="m 0,0 c 0,-3.452 -2.798,-6.25 -6.25,-6.25 -3.452,0 -6.25,2.798 -6.25,6.25 0,3.452 2.798,6.25 6.25,6.25 C -2.798,6.25 0,3.452 0,0 Z" style="fill:none;stroke:#461036;stroke-width:6;stroke-linecap:butt;stroke-linejoin:miter;stroke-miterlimit:10;stroke-dasharray:none;stroke-opacity:1" id="path42"/></g><g id="g44" transform="matrix(1, 0, 0, 1, 296.88681, 631.243286)"><path d="M 0,0 C 10.004,-16.325 33.722,-16.325 43.726,0" style="fill:none;stroke:#461036;stroke-width:10;stroke-linecap:round;stroke-linejoin:round;stroke-miterlimit:10;stroke-dasharray:none;stroke-opacity:1" id="path46"/></g><g id="g48" transform="matrix(1, 0, 0, 1, 418.75, 637.5)"><path d="M 0,0 C 0,17.259 -13.991,31.25 -31.25,31.25 -48.509,31.25 -62.5,17.259 -62.5,0 c 0,-17.259 13.991,-31.25 31.25,-31.25 C -13.991,-31.25 0,-17.259 0,0" style="fill:#e34198;fill-opacity:1;fill-rule:nonzero;stroke:none" id="path50"/></g><g id="g52" transform="matrix(1, 0, 0, 1, 281.25, 637.5)"><path d="M 0,0 C 0,17.259 -13.991,31.25 -31.25,31.25 -48.509,31.25 -62.5,17.259 -62.5,0 c 0,-17.259 13.991,-31.25 31.25,-31.25 C -13.991,-31.25 0,-17.259 0,0" style="fill:#e34198;fill-opacity:1;fill-rule:nonzero;stroke:none" id="path54"/></g><g id="g56" transform="matrix(1, 0, 0, 1, 296.88681, 631.243286)"><path d="M 0,0 C 10.004,-16.325 33.722,-16.325 43.726,0" style="fill:none;stroke:#461036;stroke-width:10;stroke-linecap:round;stroke-linejoin:round;stroke-miterlimit:10;stroke-dasharray:none;stroke-opacity:1" id="path58"/></g></g><path d="M 28.937 20.143 Q 27.649 20.143 26.61 19.572 Q 25.571 19 24.989 18 Q 24.406 17 24.406 15.765 Q 24.406 14.462 25.008 13.443 Q 25.61 12.423 26.664 11.871 Q 27.718 11.319 29.052 11.319 Q 30.332 11.319 31.363 11.894 Q 32.394 12.469 32.969 13.469 Q 33.544 14.47 33.544 15.696 Q 33.544 17.682 32.248 18.912 Q 30.953 20.143 28.937 20.143 Z M 27.948 13.205 Q 27.948 13.948 28.059 14.941 Q 28.17 15.934 28.362 16.9 Q 28.553 17.866 28.868 18.533 Q 29.182 19.2 29.535 19.2 Q 29.979 19.2 29.979 18.387 Q 29.979 17.613 29.872 16.597 Q 29.765 15.581 29.573 14.596 Q 29.381 13.611 29.071 12.937 Q 28.76 12.262 28.408 12.262 Q 27.948 12.262 27.948 13.205 Z M 45.847 19.813 Q 45.226 19.813 44.981 19.729 Q 44.736 19.644 44.736 19.361 Q 44.736 19.253 44.774 19.192 Q 44.812 19.131 44.95 19.031 Q 45.173 18.885 45.173 18.418 Q 45.173 18.103 45.157 16.701 Q 45.142 15.298 45.142 14.976 Q 45.142 14.209 44.946 13.834 Q 44.751 13.458 44.291 13.458 Q 44.038 13.458 43.823 13.55 L 43.823 13.749 Q 43.762 15.842 43.762 18.303 Q 43.762 18.655 43.812 18.801 Q 43.862 18.947 44.007 19 Q 44.145 19.062 44.195 19.135 Q 44.245 19.207 44.245 19.361 Q 44.245 19.598 44.05 19.698 Q 43.854 19.798 43.348 19.798 L 40.634 19.813 Q 40.006 19.813 39.757 19.729 Q 39.507 19.644 39.507 19.361 Q 39.507 19.253 39.546 19.196 Q 39.584 19.138 39.722 19.046 Q 39.96 18.878 39.96 18.418 L 39.96 14.976 Q 39.96 14.217 39.76 13.837 Q 39.561 13.458 39.109 13.458 Q 38.733 13.458 38.518 13.611 L 38.549 18.402 Q 38.549 18.74 38.591 18.851 Q 38.633 18.962 38.748 19.016 Q 39.001 19.123 39.001 19.33 Q 39.001 19.621 38.814 19.717 Q 38.626 19.813 38.059 19.813 L 35.283 19.813 Q 34.517 19.813 34.264 19.721 Q 34.011 19.629 34.011 19.361 Q 34.011 19.215 34.065 19.135 Q 34.118 19.054 34.279 18.977 Q 34.524 18.847 34.605 18.713 Q 34.685 18.579 34.685 18.318 L 34.685 14.209 Q 34.685 13.903 34.59 13.795 Q 34.494 13.688 34.264 13.688 Q 34.057 13.688 33.961 13.615 Q 33.865 13.542 33.865 13.358 Q 33.865 13.067 34.237 12.802 Q 34.609 12.538 35.943 11.81 Q 36.012 11.771 36.046 11.748 Q 36.081 11.725 36.142 11.695 Q 36.203 11.664 36.257 11.633 Q 36.518 11.488 36.728 11.407 Q 36.939 11.327 37.096 11.3 Q 37.254 11.273 37.38 11.319 Q 37.507 11.365 37.591 11.43 Q 37.675 11.495 37.76 11.645 Q 37.844 11.794 37.898 11.929 Q 37.951 12.063 38.028 12.293 L 38.296 13.059 Q 38.825 12.185 39.634 11.729 Q 40.443 11.273 41.355 11.273 Q 42.137 11.273 42.792 11.718 Q 43.448 12.162 43.693 12.906 Q 44.253 12.139 45 11.706 Q 45.748 11.273 46.552 11.273 Q 47.043 11.273 47.484 11.461 Q 47.925 11.649 48.277 12.017 Q 48.63 12.385 48.829 12.994 Q 49.029 13.604 49.006 14.378 Q 48.975 17.076 48.975 18.303 Q 48.975 18.663 49.04 18.813 Q 49.105 18.962 49.305 19.016 Q 49.443 19.046 49.496 19.123 Q 49.55 19.2 49.55 19.361 Q 49.55 19.606 49.343 19.702 Q 49.136 19.798 48.561 19.798 Z M 54.432 19.031 Q 51.971 18.939 50.859 18.142 Q 49.748 17.345 49.748 15.696 Q 49.748 13.826 51.151 12.626 Q 52.554 11.426 54.792 11.426 Q 55.612 11.426 56.517 11.403 Q 57.422 11.38 57.682 11.38 Q 58.794 11.38 59.304 11.656 Q 59.813 11.932 59.813 12.576 Q 59.813 12.944 59.545 13.151 Q 59.277 13.358 58.87 13.358 Q 58.625 13.358 58.357 13.19 Q 58.089 13.021 57.878 12.818 Q 57.667 12.615 57.307 12.434 Q 56.946 12.254 56.548 12.231 L 56.594 12.339 Q 56.87 12.515 56.965 12.58 Q 57.061 12.645 57.379 12.883 Q 57.698 13.121 57.859 13.289 Q 58.02 13.458 58.28 13.768 Q 58.541 14.079 58.671 14.362 Q 58.801 14.646 58.909 15.037 Q 59.016 15.428 59.016 15.842 Q 59.016 16.9 58.334 17.651 Q 57.652 18.402 56.456 18.648 Q 58.096 18.694 58.916 19.123 Q 59.737 19.552 59.737 20.319 Q 59.737 21.469 58.453 22.17 Q 57.169 22.872 54.746 22.872 Q 52.293 22.872 51.162 22.4 Q 50.032 21.929 50.032 20.909 Q 50.032 20.181 50.699 19.794 Q 51.365 19.407 52.308 19.407 Q 52.968 19.407 53.393 19.759 Q 53.819 20.112 53.819 20.679 Q 53.819 20.84 53.765 21.074 Q 53.711 21.308 53.711 21.446 Q 53.711 21.967 54.792 21.967 Q 55.421 21.967 55.678 21.638 Q 55.934 21.308 55.934 20.534 Q 55.934 20.051 55.881 19.771 Q 55.827 19.491 55.67 19.33 Q 55.513 19.169 55.31 19.112 Q 55.106 19.054 54.731 19.031 Z M 53.443 13.312 Q 53.443 14.447 53.619 15.547 Q 53.796 16.647 54.106 17.36 Q 54.417 18.073 54.761 18.073 Q 55.198 18.073 55.198 17.429 Q 55.198 16.225 55.03 15.06 Q 54.861 13.895 54.57 13.14 Q 54.279 12.385 53.957 12.385 Q 53.443 12.385 53.443 13.312 Z" style="fill: rgb(247, 131, 172); text-wrap-mode: nowrap;"/><path d="M 65.943 19.938 Q 65.177 19.938 64.924 19.846 Q 64.671 19.754 64.671 19.486 Q 64.671 19.34 64.724 19.26 Q 64.778 19.179 64.939 19.102 Q 65.184 18.972 65.269 18.838 Q 65.353 18.704 65.353 18.443 L 65.299 11.712 Q 65.299 11.168 65.188 10.984 Q 65.077 10.8 64.74 10.8 Q 64.525 10.8 64.441 10.735 Q 64.356 10.67 64.356 10.516 Q 64.356 10.194 64.667 10.011 Q 64.977 9.827 66.196 9.359 Q 66.679 9.175 66.963 9.06 Q 67.231 8.96 67.545 8.845 Q 67.86 8.73 68.005 8.677 Q 68.151 8.623 68.312 8.569 Q 68.473 8.516 68.573 8.496 Q 68.672 8.477 68.757 8.477 Q 68.902 8.477 68.99 8.508 Q 69.079 8.539 69.128 8.569 Q 69.178 8.6 69.197 8.719 Q 69.217 8.838 69.22 8.91 Q 69.224 8.983 69.224 9.198 Q 69.155 10.325 69.151 11.854 Q 69.148 13.384 69.178 15.434 Q 69.209 17.485 69.209 18.497 Q 69.209 18.803 69.297 18.93 Q 69.385 19.056 69.623 19.125 Q 69.868 19.187 69.868 19.455 Q 69.868 19.746 69.677 19.842 Q 69.485 19.938 68.895 19.938 Z M 74.697 20.268 Q 73.409 20.268 72.37 19.697 Q 71.331 19.125 70.749 18.125 Q 70.166 17.125 70.166 15.89 Q 70.166 14.587 70.768 13.568 Q 71.37 12.548 72.424 11.996 Q 73.478 11.444 74.812 11.444 Q 76.092 11.444 77.123 12.019 Q 78.154 12.594 78.729 13.594 Q 79.304 14.595 79.304 15.821 Q 79.304 17.807 78.008 19.037 Q 76.713 20.268 74.697 20.268 Z M 73.708 13.33 Q 73.708 14.073 73.819 15.066 Q 73.93 16.059 74.122 17.025 Q 74.313 17.991 74.628 18.658 Q 74.942 19.325 75.295 19.325 Q 75.739 19.325 75.739 18.512 Q 75.739 17.738 75.632 16.722 Q 75.525 15.706 75.333 14.721 Q 75.141 13.736 74.831 13.062 Q 74.52 12.387 74.168 12.387 Q 73.708 12.387 73.708 13.33 Z M 81.244 19.938 Q 80.477 19.938 80.224 19.846 Q 79.971 19.754 79.971 19.486 Q 79.971 19.34 80.025 19.26 Q 80.079 19.179 80.24 19.102 Q 80.485 18.972 80.569 18.838 Q 80.654 18.704 80.654 18.443 L 80.6 11.712 Q 80.6 11.168 80.489 10.984 Q 80.378 10.8 80.04 10.8 Q 79.826 10.8 79.742 10.735 Q 79.657 10.67 79.657 10.516 Q 79.657 10.194 79.968 10.011 Q 80.278 9.827 81.497 9.359 Q 81.98 9.175 82.264 9.06 Q 82.532 8.96 82.846 8.845 Q 83.161 8.73 83.306 8.677 Q 83.452 8.623 83.613 8.569 Q 83.774 8.516 83.873 8.496 Q 83.973 8.477 84.057 8.477 Q 84.203 8.477 84.291 8.508 Q 84.379 8.539 84.429 8.569 Q 84.479 8.6 84.498 8.719 Q 84.517 8.838 84.521 8.91 Q 84.525 8.983 84.525 9.198 Q 84.456 10.325 84.452 11.854 Q 84.448 13.384 84.479 15.434 Q 84.51 17.485 84.51 18.497 Q 84.51 18.803 84.598 18.93 Q 84.686 19.056 84.924 19.125 Q 85.169 19.187 85.169 19.455 Q 85.169 19.746 84.977 19.842 Q 84.786 19.938 84.195 19.938 Z" style="fill: rgb(247, 131, 172); text-wrap-mode: nowrap;"/><path d="M 61.875 20.312 Q 60.932 20.312 60.272 19.68 Q 59.611 19.047 59.611 18 Q 59.611 16.791 60.324 16.05 Q 61.037 15.309 62.109 15.309 Q 63.051 15.309 63.684 15.933 Q 64.316 16.558 64.316 17.637 Q 64.316 18.806 63.643 19.559 Q 62.971 20.312 61.875 20.312 Z" style="fill: rgb(240, 101, 149); text-wrap-mode: nowrap;"/></g></svg>