<?xml version="1.0" encoding="utf-8"?>
<svg width="88" height="31" viewBox="0 0 88 31" xmlns="http://www.w3.org/2000/svg">
  <defs/>
  <rect width="88" height="31" style="stroke: rgb(255, 255, 255);"/>
  <path id="party-horn-solid" stroke="none" d="M 59.566082 5.370434 C 59.566082 4.559269 60.22366 3.901691 61.034824 3.901691 C 61.845989 3.901691 62.503567 4.559269 62.503567 5.370434 C 62.503567 6.181597 61.845989 6.839176 61.034824 6.839176 C 60.22366 6.839176 59.566082 6.181597 59.566082 5.370434 Z M 78.659737 11.245405 C 78.659737 10.434242 79.317314 9.776663 80.128479 9.776663 C 80.939644 9.776663 81.597221 10.434242 81.597221 11.245405 C 81.597221 12.056568 80.939644 12.714148 80.128479 12.714148 C 79.317314 12.714148 78.659737 12.056568 78.659737 11.245405 Z M 80.128479 22.995348 C 80.939644 22.995348 81.597221 23.652925 81.597221 24.46409 C 81.597221 25.275255 80.939644 25.932835 80.128479 25.932835 C 79.317314 25.932835 78.659737 25.275255 78.659737 24.46409 C 78.659737 23.652925 79.317314 22.995348 80.128479 22.995348 Z M 65.762337 10.924118 C 65.330894 10.492674 65.330894 9.795021 65.762337 9.368168 L 66.143295 8.987213 C 66.909798 8.220713 67.391724 7.215542 67.511063 6.136934 L 67.648758 4.879322 C 67.717606 4.278057 68.263794 3.842024 68.869652 3.906281 C 69.475502 3.970539 69.911537 4.516727 69.84269 5.122583 L 69.704994 6.380194 C 69.530586 7.954502 68.823753 9.423246 67.703835 10.543163 L 67.322876 10.924118 C 66.891434 11.35556 66.193779 11.35556 65.76693 10.924118 Z M 74.574799 18.176037 L 74.951164 17.795082 C 76.071075 16.675163 77.539825 15.968331 79.114128 15.793919 L 80.371742 15.656223 C 80.9776 15.587377 81.519196 16.023411 81.588043 16.629265 C 81.656891 17.235123 81.220856 17.77672 80.615005 17.845568 L 79.357391 17.983261 C 78.278786 18.102598 77.273613 18.58453 76.507111 19.35103 L 76.135338 19.736576 C 75.703896 20.168018 75.006241 20.168018 74.579384 19.736576 C 74.152534 19.305132 74.147942 18.607479 74.579384 18.180626 Z M 81.335602 4.291826 C 81.730331 4.755398 81.670662 5.453051 81.207092 5.843185 L 80.748108 6.23332 C 80.068817 6.807047 79.20134 7.109976 78.315498 7.087027 C 77.553589 7.068668 76.911018 7.656164 76.86512 8.418076 L 76.782501 9.795021 C 76.667755 11.745695 75.024597 13.251158 73.073921 13.20067 C 72.725098 13.191488 72.385452 13.310825 72.123833 13.535727 L 71.664848 13.925861 C 71.201279 14.320585 70.503624 14.260918 70.113487 13.797346 C 69.723358 13.333775 69.778435 12.63612 70.242004 12.245985 L 70.700989 11.85585 C 71.38028 11.282124 72.247757 10.979197 73.133591 11.002146 C 73.8955 11.020504 74.538078 10.433006 74.583977 9.671097 L 74.666595 8.294151 C 74.781342 6.343477 76.424492 4.838015 78.375168 4.888502 C 78.723991 4.897682 79.063644 4.778347 79.325264 4.553446 L 79.784241 4.163311 C 80.247818 3.768585 80.945465 3.828255 81.335602 4.291826 Z M 65.009613 13.145592 L 72.353325 20.489305 C 72.706741 20.842722 72.858208 21.352192 72.748047 21.838713 C 72.637894 22.325233 72.293655 22.729137 71.830086 22.903551 L 70.007927 23.587435 L 61.91148 15.49099 L 62.595364 13.668831 C 62.769775 13.20067 63.173679 12.856432 63.660202 12.750866 C 64.146721 12.6453 64.656189 12.796764 65.009613 13.145592 Z M 60.309631 19.764114 L 61.346931 17.001041 L 68.497871 24.151983 L 65.734802 25.189281 L 60.309631 19.764114 Z M 59.745083 21.274166 L 64.224747 25.75383 L 60.080139 27.30978 C 59.543133 27.511734 58.932686 27.378628 58.524193 26.974724 C 58.115696 26.570818 57.987183 25.955782 58.189133 25.418774 L 59.740494 21.274166 Z" style="fill: rgb(255, 255, 255);"/>
  <path id="PEOPLE-PLEDGE" fill-rule="evenodd" stroke="none" d="M 39.417969 26.982422 C 37.697769 26.970222 37.11232 26.334719 37.136719 25.078125 C 37.173317 22.967535 37.173317 20.711672 37.136719 18.613281 C 37.11232 17.320087 38.002201 16.283203 39.283203 16.283203 L 43.236328 16.283203 C 44.51733 16.283203 45.384766 17.320087 45.384766 18.613281 L 45.384766 19.759766 C 45.384766 20.125767 45.384766 20.491875 45.384766 20.796875 L 41.578125 20.796875 C 41.614727 20.162479 41.638672 19.504017 41.638672 18.857422 L 40.857422 18.857422 C 40.857422 19.406418 40.845703 19.95392 40.845703 20.478516 C 40.8335 21.75951 40.832539 22.712692 40.869141 24.054688 L 41.613281 24.054688 L 41.613281 21.833984 L 45.431641 21.833984 C 45.407242 22.93198 45.407242 24.785385 45.431641 26.859375 L 41.650391 26.859375 L 41.650391 24.724609 L 41.382813 24.724609 C 41.382813 26.493599 41.101597 26.982422 39.466797 26.982422 L 39.417969 26.982422 Z M 6.966797 26.859375 C 7.052197 23.321392 7.052197 19.930077 6.966797 16.404297 L 13.066406 16.404297 C 14.347402 16.404297 15.212891 17.441179 15.212891 18.734375 L 15.212891 23.943359 C 15.212891 25.212152 14.810997 25.847656 13.066406 25.847656 L 13.005859 25.847656 C 12.993659 25.847656 12.96776 25.847656 12.943359 25.847656 C 11.406169 25.835457 11.015625 25.409079 11.015625 23.554688 L 10.722656 23.554688 C 10.734856 23.871885 10.735847 24.20038 10.748047 24.517578 C 10.748047 24.859177 10.747566 25.188662 10.759766 25.505859 C 10.771966 26.006058 10.772956 26.468977 10.785156 26.859375 L 6.966797 26.859375 Z M 15.884766 26.859375 C 16.043365 23.370192 16.043365 19.893478 15.884766 16.404297 L 19.800781 16.404297 C 19.73978 18.929684 19.727552 21.443363 19.751953 23.96875 C 20.313154 23.96875 20.935717 23.956522 21.228516 23.919922 L 21.228516 26.859375 L 15.884766 26.859375 Z M 21.898438 26.859375 C 21.983837 25.114784 22.021484 23.371544 22.021484 21.626953 C 22.021484 19.894564 21.983837 18.148888 21.898438 16.404297 L 27.486328 16.404297 L 27.486328 19.210938 C 27.242329 19.174337 26.706242 19.162109 26.181641 19.162109 L 25.765625 19.162109 C 25.765625 19.601311 25.753906 20.052988 25.753906 20.492188 C 26.339504 20.479988 26.875734 20.467758 27.302734 20.443359 L 27.302734 22.761719 L 25.765625 22.761719 C 25.765625 22.761719 25.766104 22.761719 25.753906 22.761719 C 25.753906 23.213116 25.765625 23.652119 25.765625 24.103516 L 26.181641 24.103516 C 26.706242 24.103516 27.242329 24.079086 27.486328 24.054688 L 27.486328 26.859375 L 21.898438 26.859375 Z M 28.158203 26.859375 C 28.243605 25.114784 28.279297 23.371544 28.279297 21.626953 C 28.279297 19.894564 28.243605 18.148888 28.158203 16.404297 L 34.257813 16.404297 C 35.538811 16.404297 36.428699 17.441179 36.404297 18.734375 C 36.392101 19.68597 36.380859 20.673916 36.380859 21.662109 C 36.380859 22.650305 36.404297 23.650928 36.404297 24.578125 C 36.404297 25.846916 35.526611 26.859375 34.257813 26.859375 L 28.158203 26.859375 Z M 46.164063 26.859375 C 46.249462 25.114784 46.287109 23.371544 46.287109 21.626953 C 46.287109 19.894564 46.249462 18.148888 46.164063 16.404297 L 51.751953 16.404297 L 51.751953 19.210938 C 51.507954 19.174337 50.971863 19.162109 50.447266 19.162109 L 50.03125 19.162109 C 50.03125 19.601311 50.019531 20.052988 50.019531 20.492188 C 50.605133 20.479988 51.141357 20.467758 51.568359 20.443359 L 51.568359 22.761719 L 50.03125 22.761719 C 50.03125 22.761719 50.031734 22.761719 50.019531 22.761719 C 50.019531 23.213116 50.03125 23.652119 50.03125 24.103516 L 50.447266 24.103516 C 50.971863 24.103516 51.507954 24.079086 51.751953 24.054688 L 51.751953 26.859375 L 46.164063 26.859375 Z M 31.841797 24.298828 L 32.244141 24.298828 C 32.390541 24.298828 32.537193 24.298828 32.683594 24.298828 C 32.707993 23.322832 32.720703 22.480949 32.720703 21.626953 C 32.720703 20.785158 32.707993 19.942791 32.683594 18.966797 L 32.269531 18.966797 C 32.123131 18.966797 31.988195 18.966797 31.841797 18.966797 C 31.829596 19.942791 31.830078 20.785158 31.830078 21.626953 C 31.830078 22.480949 31.829596 23.322832 31.841797 24.298828 Z M 10.722656 22.871094 L 11.480469 22.871094 C 11.492668 21.480297 11.492668 20.466967 11.480469 19.076172 L 10.736328 19.076172 C 10.736328 19.417772 10.722656 20.113708 10.722656 20.845703 L 10.722656 21.980469 C 10.722656 22.370869 10.722656 22.724693 10.722656 22.871094 Z M 24.228516 15.222656 C 22.947521 15.222656 22.057632 14.185774 22.082031 12.892578 C 22.118633 10.989384 22.118633 8.841629 22.082031 6.865234 C 22.057632 5.559839 22.947521 4.523438 24.228516 4.523438 L 28.207031 4.523438 C 29.488026 4.523438 30.377918 5.559839 30.353516 6.865234 C 30.316916 8.841629 30.316916 10.989384 30.353516 12.892578 C 30.377918 14.185774 29.488026 15.222656 28.207031 15.222656 L 24.228516 15.222656 Z M 6.966797 15.099609 C 7.052197 11.561613 7.052197 8.170324 6.966797 4.644531 L 13.066406 4.644531 C 14.347405 4.644531 15.212891 5.68141 15.212891 6.974609 L 15.212891 12.183594 C 15.212891 13.452391 14.811005 14.087891 13.066406 14.087891 L 13.005859 14.087891 C 12.993659 14.087891 12.96776 14.087891 12.943359 14.087891 C 11.406161 14.075691 11.015625 13.647366 11.015625 11.792969 L 10.722656 11.792969 C 10.734856 12.110168 10.735847 12.440613 10.748047 12.757813 C 10.748047 13.099413 10.747566 13.428894 10.759766 13.746094 C 10.771966 14.246294 10.772956 14.709208 10.785156 15.099609 L 6.966797 15.099609 Z M 15.884766 15.099609 C 15.970166 13.355013 16.005859 11.609831 16.005859 9.865234 C 16.005859 8.132839 15.970166 6.389126 15.884766 4.644531 L 21.472656 4.644531 L 21.472656 7.451172 C 21.228657 7.414572 20.690615 7.402344 20.166016 7.402344 L 19.751953 7.402344 C 19.751953 7.841543 19.740234 8.293222 19.740234 8.732422 C 20.325836 8.720222 20.862062 8.707994 21.289063 8.683594 L 21.289063 11 L 19.751953 11 C 19.751953 11 19.752436 11 19.740234 11 C 19.740234 11.451401 19.751953 11.892349 19.751953 12.34375 L 20.166016 12.34375 C 20.690615 12.34375 21.228657 12.319323 21.472656 12.294922 L 21.472656 15.099609 L 15.884766 15.099609 Z M 31.023438 15.099609 C 31.108837 11.561625 31.108837 8.170313 31.023438 4.644531 L 37.125 4.644531 C 38.406002 4.644531 39.271484 5.681416 39.271484 6.974609 L 39.271484 12.183594 C 39.271484 13.452385 38.869602 14.087891 37.125 14.087891 L 37.0625 14.087891 C 37.050301 14.087891 37.026356 14.087891 37.001953 14.087891 C 35.464756 14.075691 35.074219 13.64736 35.074219 11.792969 L 34.78125 11.792969 C 34.793446 12.110168 34.794437 12.440613 34.806641 12.757813 C 34.806641 13.099413 34.80616 13.428894 34.818359 13.746094 C 34.830563 14.246294 34.831554 14.709208 34.84375 15.099609 L 31.023438 15.099609 Z M 39.943359 15.099609 C 40.101959 11.610428 40.101959 8.133711 39.943359 4.644531 L 43.859375 4.644531 C 43.79837 7.16992 43.786144 9.683596 43.810547 12.208984 C 44.371746 12.208984 44.994308 12.196754 45.287109 12.160156 L 45.287109 15.099609 L 39.943359 15.099609 Z M 45.957031 15.099609 C 46.042431 13.355019 46.080078 11.609825 46.080078 9.865234 C 46.080078 8.132845 46.042431 6.38912 45.957031 4.644531 L 51.544922 4.644531 L 51.544922 7.451172 C 51.300922 7.414572 50.764832 7.402344 50.240234 7.402344 L 49.824219 7.402344 C 49.824219 7.841543 49.8125 8.293222 49.8125 8.732422 C 50.398102 8.720222 50.93433 8.707994 51.361328 8.683594 L 51.361328 11 L 49.824219 11 C 49.824219 11 49.824699 11 49.8125 11 C 49.8125 11.451401 49.824219 11.892349 49.824219 12.34375 L 50.240234 12.34375 C 50.764832 12.34375 51.300922 12.319323 51.544922 12.294922 L 51.544922 15.099609 L 45.957031 15.099609 Z M 25.802734 12.660156 L 26.632813 12.660156 C 26.681614 10.634962 26.681614 9.12285 26.632813 7.097656 L 25.802734 7.097656 C 25.753935 9.12285 25.753935 10.634962 25.802734 12.660156 Z M 10.722656 11.111328 L 11.480469 11.111328 C 11.492668 9.72053 11.492668 8.707205 11.480469 7.316406 L 10.736328 7.316406 C 10.736328 7.658007 10.722656 8.353937 10.722656 9.085938 L 10.722656 10.220703 C 10.722656 10.611105 10.722656 10.964928 10.722656 11.111328 Z M 34.78125 11.111328 L 35.539063 11.111328 C 35.551266 9.720535 35.551266 8.707199 35.539063 7.316406 L 34.794922 7.316406 C 34.794922 7.658007 34.78125 8.353937 34.78125 9.085938 L 34.78125 10.220703 C 34.78125 10.611105 34.78125 10.964928 34.78125 11.111328 Z" style="fill: rgb(255, 255, 255);"/>
</svg>