<svg
    xmlns="http://www.w3.org/2000/svg" width="2500" height="2316" viewBox="0 0.014 736.7 682.553">
    <path fill="#0222a9" d="M348.859 190.552l-63.721 113.721 63.721-24.418 60.822 23.289 16.288-18.28V160.65z"/>
    <path fill="#011da9" d="M546.82 599.127L431.729 448.925v198.589l-82.87 35.053V343.341l82.87-31.736L546.82 476.102V266.959l78.262-30.182v329.481z"/>
    <path fill="#0222a9" d="M150.899 599.127l73.427-32.509-73.427-142.557z"/>
    <path fill="#069330" d="M229.163 236.777l36.834 74.819 19.141-7.323 63.721-113.721-77.114-29.989zM409.681 303.144l58.901-66.367 78.238 30.182v209.143L431.729 311.605z"/>
    <path fill="#069330" d="M150.899 266.959l-78.261-30.182v329.481l78.261 32.869V424.061l115.098 223.453 82.862 35.053V343.341l-82.862-31.745v172.212z"/>
    <path fill="#fe2015" d="M265.997 311.596v172.212L150.899 266.959l78.264-30.182zM546.82 599.127L431.729 448.925v82.063l23.502 32.969z"/>
    <path fill="#ffc001" d="M431.729 311.596l-82.87 31.745-82.862-31.745 82.862-31.741zM468.552 236.777l78.268-30.108 78.262 30.108-78.262 30.182zM72.638 236.777l78.261-30.108 78.264 30.108-78.264 30.182zM425.969 160.65l-77.11-29.779-77.114 29.692 77.114 29.989z"/>
</svg>
